<?xml version="1.0" standalone="no"?>
<!DOCTYPE svg PUBLIC "-//W3C//DTD SVG 20010904//EN"
 "http://www.w3.org/TR/2001/REC-SVG-20010904/DTD/svg10.dtd">
<svg version="1.0" xmlns="http://www.w3.org/2000/svg"
 width="2057.000000pt" height="1457.000000pt" viewBox="0 0 2057.000000 1457.000000"
 preserveAspectRatio="xMidYMid meet">
<metadata>
Created by potrace 1.16, written by Peter Selinger 2001-2019
</metadata>
<g transform="translate(0.000000,1457.000000) scale(0.100000,-0.100000)"
fill="#000000" stroke="none">
<path d="M7046 12230 c-72 -37 -189 -114 -323 -215 l-103 -76 0 -47 c0 -65 57
-893 62 -897 4 -4 53 137 309 888 67 196 126 357 130 357 5 0 9 -4 9 -8 0 -5
-95 -284 -210 -622 -116 -337 -209 -615 -207 -616 1 -1 142 169 312 379 257
318 309 387 308 410 -8 115 -170 477 -212 477 -9 0 -42 -14 -75 -30z"/>
<path d="M4582 12243 c-34 -14 -142 -292 -213 -548 l-31 -113 363 -420 c200
-231 365 -418 367 -417 2 2 -51 167 -117 366 -262 795 -361 1099 -361 1104 0
3 4 5 10 5 7 0 174 -497 453 -1350 l34 -105 6 45 c3 25 13 288 22 585 l17 540
-38 33 c-55 47 -198 144 -274 184 -58 31 -214 99 -222 97 -2 0 -9 -3 -16 -6z"/>
<path d="M18754 12140 c-121 -31 -592 -232 -600 -255 -5 -16 -174 -1173 -174
-1192 1 -16 2 -15 12 2 6 11 198 331 426 710 374 623 457 755 440 705 -3 -8
-197 -334 -432 -723 -234 -390 -421 -705 -414 -701 9 6 978 783 997 800 9 8
-21 293 -39 384 -23 113 -75 271 -93 282 -18 11 -44 9 -123 -12z"/>
<path d="M11663 12075 c-133 -41 -231 -153 -260 -296 -5 -26 -6 -26 -141 -38
-76 -6 -177 -19 -225 -29 l-88 -18 -34 55 c-41 68 -106 132 -160 159 -94 47
-212 51 -305 11 -108 -47 -377 -207 -420 -249 -117 -115 -140 -288 -59 -446
l32 -62 -62 -69 c-34 -37 -90 -108 -124 -157 -100 -142 -82 -130 -157 -110
-171 44 -351 -31 -426 -178 -13 -26 -49 -136 -79 -245 -42 -150 -55 -213 -55
-264 0 -166 103 -301 266 -351 l71 -21 7 -105 c4 -57 16 -158 27 -225 14 -80
17 -123 11 -125 -6 -2 -38 -21 -71 -42 -133 -86 -196 -246 -158 -397 21 -80
207 -412 264 -470 115 -116 288 -140 445 -60 66 34 66 34 86 14 20 -19 20 -21
3 -71 -51 -146 -50 -251 1 -399 25 -74 28 -93 19 -114 -17 -36 1 -53 56 -53
58 0 133 19 140 36 3 8 -7 72 -21 143 -25 124 -34 263 -18 288 4 6 30 14 57
18 59 9 80 19 117 53 25 23 28 23 43 8 9 -9 24 -16 34 -16 31 0 41 -22 41 -90
0 -119 -46 -237 -108 -275 -27 -17 -32 -24 -27 -49 3 -16 15 -36 28 -45 66
-46 115 -150 137 -291 17 -111 16 -118 -29 -130 -21 -5 -42 -17 -45 -26 -3 -9
-6 -129 -6 -269 0 -211 2 -255 15 -265 15 -13 34 -11 155 15 36 7 99 19 140
26 104 16 110 20 110 79 0 26 -4 50 -8 52 -4 2 -25 25 -45 52 -29 39 -37 58
-37 92 0 25 6 49 16 58 20 21 23 20 51 -6 l23 -21 0 119 c0 155 -3 160 -90
144 -36 -6 -73 -13 -82 -16 -13 -4 -27 13 -58 76 -23 45 -39 84 -37 87 3 2 77
-16 166 -41 89 -25 163 -46 165 -46 2 0 14 33 26 73 27 88 67 164 97 184 13 9
23 21 23 29 0 7 6 17 14 21 10 6 11 15 5 31 -7 19 -12 21 -29 12 -26 -14 -37
-6 -125 90 -85 93 -144 182 -125 188 33 11 101 88 135 153 30 57 39 68 50 59
8 -7 17 -21 21 -32 3 -11 12 -17 19 -14 45 17 110 -105 74 -141 -12 -12 13
-67 71 -153 21 -30 57 -86 81 -123 36 -57 89 -107 111 -107 3 0 8 13 11 29 l6
29 98 7 c54 3 153 15 221 26 67 11 127 17 132 14 6 -4 19 -23 29 -43 53 -103
171 -183 289 -197 95 -11 163 13 361 123 197 110 267 167 308 250 25 52 28 67
28 163 0 103 -1 109 -36 175 l-36 70 74 84 c40 47 103 127 139 178 36 50 67
92 68 92 0 0 23 -7 50 -15 49 -15 170 -20 200 -9 14 5 16 32 16 195 l0 188
147 3 146 3 34 125 c18 70 33 150 33 181 0 163 -106 303 -266 351 l-72 21 -7
101 c-3 56 -15 152 -26 214 -10 63 -19 119 -19 126 0 6 21 22 46 36 164 86
245 296 177 460 -7 19 -60 115 -116 214 -78 137 -114 190 -155 227 -72 65
-143 92 -250 92 -76 0 -89 -3 -161 -39 l-79 -39 -53 48 c-64 57 -220 176 -267
203 -27 16 -32 23 -28 44 35 158 31 221 -16 319 -27 55 -101 132 -154 159 -22
11 -131 45 -244 76 -218 60 -285 67 -367 41z m-1727 -1236 c26 -27 29 -37 29
-94 0 -57 -3 -68 -27 -91 -23 -24 -29 -26 -43 -14 -47 39 -60 140 -25 198 11
17 23 32 28 32 5 0 21 -14 38 -31z m1584 -150 c171 -21 355 -103 488 -216 123
-105 236 -282 283 -445 30 -105 37 -315 14 -429 -36 -182 -120 -336 -255 -469
-451 -445 -1195 -313 -1470 261 -65 138 -83 220 -83 389 0 169 18 251 83 389
52 109 111 190 196 272 86 81 143 120 247 169 163 76 321 101 497 79z m-1853
-231 c46 -51 56 -113 27 -174 -25 -53 -41 -61 -65 -33 -29 33 -39 63 -39 117
0 45 29 112 48 112 5 0 18 -10 29 -22z m384 -93 c22 -48 24 -113 5 -160 -17
-41 -64 -105 -77 -105 -5 0 -22 18 -38 41 -61 84 -61 208 1 283 l31 37 30 -28
c16 -15 38 -46 48 -68z m281 -422 c39 -43 58 -87 58 -139 0 -50 -28 -120 -59
-148 -17 -16 -20 -15 -49 18 -66 75 -68 208 -5 278 21 24 25 23 55 -9z m-415
-345 c50 -55 58 -132 21 -188 -31 -45 -42 -47 -69 -9 -34 48 -38 126 -8 178
12 23 26 41 29 41 4 0 16 -10 27 -22z"/>
<path d="M11298 10530 c-279 -44 -514 -239 -603 -499 -96 -282 -28 -579 180
-786 226 -227 565 -285 859 -146 203 95 351 278 407 500 30 120 24 313 -14
420 -109 305 -368 500 -687 516 -47 2 -111 0 -142 -5z m194 -321 c225 -48 380
-264 348 -488 -13 -94 -67 -197 -135 -259 -176 -161 -424 -159 -596 4 -178
171 -184 435 -13 615 107 112 251 158 396 128z"/>
<path d="M5141 11528 c-14 -468 -20 -623 -26 -743 l-5 -90 149 -452 c133 -405
161 -503 123 -430 -7 12 -74 211 -150 442 l-138 420 -379 438 c-253 292 -381
433 -386 425 -12 -22 -37 -166 -50 -293 -22 -222 3 -530 62 -744 11 -40 18
-75 16 -77 -2 -3 -28 7 -58 20 -58 26 -187 46 -301 46 -176 0 -325 -123 -362
-300 -5 -22 -13 -27 -73 -38 -37 -7 -116 -29 -175 -48 l-106 -36 -55 45 c-73
59 -140 82 -242 81 -64 0 -92 -6 -137 -26 -62 -29 -230 -159 -264 -205 -91
-123 -104 -270 -35 -406 l30 -58 -40 -62 c-23 -34 -62 -105 -87 -158 l-47 -96
-68 -5 c-129 -10 -249 -94 -304 -214 -29 -63 -57 -271 -47 -349 7 -58 41 -139
80 -190 36 -48 133 -110 193 -125 l49 -12 17 -76 c10 -42 33 -122 52 -176 l34
-99 -35 -36 c-19 -20 -48 -63 -63 -96 -24 -53 -28 -72 -28 -155 0 -82 4 -103
26 -150 28 -60 135 -197 193 -248 115 -100 278 -117 421 -42 l53 28 54 -36
c29 -20 100 -59 156 -88 l104 -51 4 -56 c10 -153 120 -293 259 -332 71 -20
251 -38 311 -30 140 17 273 135 308 273 l12 47 105 26 c57 15 135 39 174 53
l70 25 30 -28 c39 -37 110 -81 149 -92 18 -5 65 -4 119 3 l90 12 24 -30 c32
-39 38 -47 47 -62 8 -14 -11 -82 -24 -82 -4 0 -13 -44 -20 -98 -12 -93 -12
-100 9 -146 11 -27 21 -51 21 -54 0 -2 -25 -2 -54 1 l-55 5 -54 -61 c-146
-167 -188 -258 -161 -348 13 -43 13 -52 0 -76 -41 -79 -122 -134 -315 -217
-126 -54 -211 -99 -211 -111 0 -20 53 -106 63 -102 35 14 334 130 347 134 8 3
-16 -23 -54 -58 -38 -35 -82 -81 -98 -103 l-28 -40 37 -38 c20 -21 41 -38 46
-38 5 0 77 59 160 130 84 72 153 126 155 121 2 -5 -4 -47 -13 -93 -9 -45 -19
-127 -22 -181 l-6 -97 224 2 224 3 -1 110 c-1 119 -22 194 -78 284 l-26 41 0
324 c0 315 1 324 20 329 12 3 28 24 40 52 11 26 32 61 45 77 14 16 25 37 25
45 0 9 15 41 32 72 29 50 33 64 32 131 -1 84 -23 178 -59 259 l-25 54 41 44
c22 25 53 70 67 101 24 50 27 70 27 158 0 94 -2 104 -33 166 l-33 65 46 72
c26 40 65 110 86 155 l39 83 59 6 c138 15 253 92 311 210 57 118 67 364 18
469 -45 98 -153 185 -251 203 -29 6 -38 13 -43 34 -3 14 -14 59 -25 100 -21
87 -21 87 72 122 l56 21 -42 130 c-24 72 -41 138 -37 146 3 9 26 -46 54 -130
l49 -146 71 -1 c39 0 74 -3 76 -6 3 -3 33 50 66 118 34 67 83 155 109 195 l47
73 -34 42 c-119 147 -122 335 -9 484 14 18 67 66 119 108 l93 75 -90 263 c-50
144 -101 291 -113 326 l-22 64 -12 -40 c-7 -22 -12 -48 -12 -57 0 -38 -18 -10
-52 82 -21 55 -39 91 -42 82 -3 -8 -68 -330 -144 -715 -90 -451 -141 -692
-146 -678 -4 14 47 294 135 738 l142 716 -63 127 c-141 289 -317 538 -522 740
l-74 73 -13 -393z m-908 -1685 c37 -18 34 -34 -12 -76 -62 -56 -148 -62 -212
-16 l-31 22 35 35 c57 57 148 71 220 35z m-353 -328 c36 -18 36 -24 9 -59 -46
-58 -143 -75 -208 -35 l-33 20 23 26 c52 56 150 79 209 48z m178 -211 c303
-62 540 -306 593 -609 16 -94 6 -252 -21 -340 -41 -130 -96 -222 -190 -315
-96 -96 -166 -141 -281 -181 -207 -74 -427 -54 -626 56 -44 25 -100 70 -158
129 -104 104 -161 205 -195 340 -24 96 -26 249 -5 351 18 85 77 209 138 292
165 221 467 334 745 277z"/>
<path d="M3757 9174 c-78 -19 -200 -83 -264 -139 -156 -136 -236 -367 -199
-574 41 -231 211 -423 436 -493 111 -34 265 -32 373 5 205 71 360 237 412 442
19 75 19 221 0 303 -52 219 -232 398 -460 457 -73 19 -219 18 -298 -1z m253
-265 c99 -25 202 -122 237 -224 27 -77 23 -187 -10 -258 -34 -74 -106 -150
-176 -184 -49 -25 -68 -28 -151 -28 -84 0 -102 3 -152 28 -74 36 -139 102
-174 175 -24 49 -28 70 -29 147 0 82 3 96 33 157 79 161 242 233 422 187z"/>
<path d="M6490 11823 c-238 -226 -401 -496 -509 -843 l-27 -85 114 -330 c62
-181 117 -333 120 -337 4 -4 35 15 69 41 68 53 131 86 184 96 l34 6 93 273 93
273 -33 496 c-18 274 -36 497 -40 497 -4 0 -48 -39 -98 -87z"/>
<path d="M18045 11834 c-382 -218 -681 -522 -914 -929 -28 -49 -51 -92 -51
-95 0 -3 25 -51 55 -105 69 -124 78 -158 73 -265 -3 -75 -8 -94 -39 -149 l-35
-64 39 -321 38 -321 34 -34 c19 -19 36 -33 38 -30 2 2 153 252 335 556 l332
551 90 614 c50 337 89 618 88 625 -2 8 -31 -3 -83 -33z"/>
<path d="M7015 11329 l-330 -408 -92 -268 c-51 -147 -93 -271 -93 -275 0 -5
17 -8 38 -8 54 0 129 -24 185 -60 27 -17 54 -27 60 -23 6 4 77 65 157 137 80
71 196 174 257 229 62 55 115 107 117 116 15 48 46 242 57 346 14 138 6 452
-14 556 l-12 66 -330 -408z"/>
<path d="M18758 11263 c-135 -109 -368 -297 -517 -417 -150 -120 -278 -228
-286 -240 -7 -12 -160 -266 -340 -564 -284 -471 -326 -546 -313 -558 12 -12
107 38 708 378 l693 392 37 80 c100 216 188 499 229 736 20 110 46 379 38 386
-2 2 -114 -85 -249 -193z"/>
<path d="M7044 10489 c-137 -122 -250 -225 -251 -228 -2 -3 12 -24 30 -45 l33
-39 80 30 c43 16 109 38 145 47 l66 18 45 117 c48 120 110 312 104 318 -2 2
-115 -96 -252 -218z"/>
<path d="M18000 9835 c-461 -261 -674 -387 -671 -396 29 -103 32 -122 29 -221
l-3 -108 87 0 88 0 0 -80 c0 -44 4 -80 8 -80 14 0 231 138 295 187 211 162
507 500 681 777 72 115 171 295 165 300 -2 2 -308 -168 -679 -379z"/>
<path d="M17098 10193 c-9 -10 -44 -34 -77 -53 -40 -23 -59 -40 -56 -49 12
-32 45 -260 45 -312 0 -108 4 -115 79 -139 36 -12 72 -27 79 -32 7 -6 15 -9
17 -6 5 4 -61 574 -68 601 -1 5 -10 0 -19 -10z"/>
<path d="M14070 8340 l0 -120 1375 -2 1375 -3 0 33 c0 20 -6 35 -15 38 -36 14
-7 19 113 18 183 -2 185 10 3 16 -109 4 -156 9 -158 17 -4 10 36 13 164 16
l168 3 -172 2 c-146 2 -173 4 -173 17 0 13 26 15 170 15 94 0 170 3 170 8 0 4
-70 6 -156 4 -87 -2 -163 -1 -170 2 -8 3 -11 12 -8 21 5 12 33 15 168 17 l161
2 -185 7 c-102 3 -780 7 -1507 8 l-1323 1 0 -120z m2258 -27 l-3 -48 -945 0
-945 0 -3 48 -3 47 951 0 951 0 -3 -47z"/>
<path d="M16901 8207 c0 -26 6 -64 14 -84 18 -44 20 -62 3 -45 -17 17 -58 15
-65 -4 -3 -8 0 -27 6 -41 10 -21 17 -25 46 -21 35 4 35 4 35 -35 0 -37 -1 -39
-26 -33 -45 12 -74 -35 -39 -64 12 -10 21 -10 40 -2 25 11 25 11 25 -32 l0
-43 -37 1 c-34 1 -38 -2 -38 -24 0 -22 5 -25 38 -28 l37 -3 2 -52 c1 -35 3
-21 8 43 10 123 4 334 -10 360 -6 11 -17 51 -24 88 l-14 67 -1 -48z"/>
<path d="M16570 8163 c-37 -13 -40 -32 -40 -260 l0 -223 -1012 -3 -1013 -2
1013 -3 1012 -2 0 -400 0 -400 -714 0 -714 0 -48 78 c-26 42 -54 85 -62 95 -8
9 -11 17 -6 17 5 0 4 4 -2 8 -5 4 -47 67 -93 140 -46 73 -90 139 -98 147 -20
21 -67 19 -86 -3 -25 -28 -21 -66 14 -117 17 -25 29 -48 27 -50 -2 -3 -20 0
-39 5 -97 28 -199 3 -254 -62 -75 -89 -135 -282 -121 -391 6 -48 18 -73 60
-136 l52 -76 -23 -50 c-37 -82 -45 -145 -41 -319 5 -166 5 -167 72 -373 7 -23
7 -23 -98 -23 -93 0 -109 -3 -126 -20 -25 -25 -25 -51 -1 -81 18 -22 27 -24
134 -27 l116 -4 11 41 c6 23 9 45 6 49 -2 4 8 27 24 51 52 77 58 144 28 326
-11 70 -11 71 33 195 42 122 43 128 42 243 -1 113 -2 119 -27 142 -21 19 -26
33 -26 69 0 26 5 48 13 53 7 4 18 23 23 42 5 19 20 42 34 53 25 18 27 18 93
-3 64 -20 71 -20 110 -6 89 32 101 31 96 -9 0 -3 6 -11 14 -17 13 -12 117
-173 117 -183 0 -3 5 -10 10 -17 6 -7 18 -21 28 -33 10 -13 82 -44 192 -83 96
-34 184 -66 195 -71 11 -5 55 -21 99 -36 77 -27 79 -29 122 -95 24 -37 44 -70
44 -73 0 -3 -28 -7 -62 -9 l-63 -3 72 -2 c100 -3 102 -15 23 -141 l-62 -99
-136 -6 c-190 -9 -193 -10 -240 -41 -23 -15 -42 -29 -42 -30 0 -1 101 -2 224
-1 l224 0 33 58 c18 32 36 58 41 58 4 0 7 3 6 8 -3 10 45 92 54 92 11 0 68
-87 61 -94 -4 -3 -2 -6 3 -6 5 0 18 -13 27 -30 l18 -30 203 0 203 0 49 -107
c27 -58 50 -110 52 -114 2 -4 -306 -10 -685 -13 -798 -6 -846 -8 -855 -21 -4
-5 -8 -31 -8 -57 l0 -48 880 0 880 0 0 180 0 179 -37 10 c-100 24 -92 27 -95
-31 l-3 -53 -29 62 c-24 52 -33 63 -60 69 -17 4 -77 22 -133 40 -86 29 -116
34 -196 34 l-94 0 -36 55 c-20 30 -38 60 -39 67 -2 7 -9 18 -17 24 -12 10 -6
25 39 95 55 87 62 112 36 137 -13 13 -19 8 -49 -39 -18 -30 -42 -69 -52 -86
-11 -18 -22 -33 -25 -33 -3 0 -22 28 -42 63 -65 107 -67 108 -258 176 -96 34
-184 66 -195 71 -11 5 -55 21 -97 36 -73 25 -80 30 -109 78 -18 28 -38 61 -47
74 l-14 22 711 0 711 0 0 -300 0 -300 -192 -3 -193 -2 193 -3 192 -2 0 -34 c0
-38 4 -40 83 -52 l47 -6 0 664 0 664 -30 29 c-16 16 -30 37 -30 47 0 22 13 23
30 3 7 -8 16 -15 21 -15 5 0 9 128 9 285 l0 286 -25 24 c-24 25 -36 28 -65 18z"/>
<path d="M17010 7366 c-56 -15 -115 -43 -131 -62 -18 -22 8 -62 61 -95 79 -49
90 -59 115 -110 14 -27 32 -49 40 -49 39 0 60 -94 30 -136 -11 -16 -12 -29 -5
-55 6 -19 10 -46 10 -61 0 -33 16 -35 125 -14 61 12 74 19 106 54 19 22 41 60
48 84 44 143 4 348 -79 410 -59 44 -222 61 -320 34z"/>
<path d="M1914 6250 c-73 -23 -95 -87 -75 -218 14 -90 36 -157 67 -202 23 -35
81 -77 91 -67 3 3 8 30 12 59 5 45 3 55 -13 69 -26 21 -24 69 3 87 12 8 21 25
21 39 0 20 4 24 17 18 81 -30 250 -33 279 -4 14 15 14 19 0 47 -19 38 -126
135 -174 159 -42 20 -178 28 -228 13z"/>
<path d="M10945 6135 c-3 -16 -20 -136 -38 -265 -31 -226 -32 -247 -31 -555 1
-269 5 -362 27 -585 15 -146 30 -283 33 -305 l6 -41 66 7 c37 4 96 10 132 13
65 5 168 22 204 33 17 5 18 13 11 127 -10 161 -7 367 5 496 28 285 125 748
226 1082 5 16 -17 18 -315 20 l-321 3 -5 -30z"/>
<path d="M1903 5525 c-91 -96 -139 -189 -152 -292 -10 -80 -15 -93 -38 -93 -9
0 -36 -12 -61 -26 -33 -19 -50 -39 -68 -77 -24 -52 -24 -53 -24 -417 0 -229 4
-379 11 -404 6 -22 29 -56 55 -82 26 -26 44 -54 44 -67 0 -33 28 -67 68 -84
26 -11 72 -14 191 -12 l156 2 3 -305 2 -305 -55 -6 c-103 -10 -255 -119 -300
-213 -16 -35 -16 -37 2 -63 12 -16 32 -27 49 -29 25 -3 38 6 87 62 59 67 138
116 188 116 26 0 27 -2 31 -70 4 -84 22 -110 63 -92 23 11 25 16 25 82 0 38 2
70 5 70 11 0 90 -43 118 -64 16 -11 45 -43 64 -69 42 -56 72 -72 108 -55 28
12 40 45 32 81 -9 35 -106 137 -170 178 -31 20 -80 43 -107 50 l-50 13 0 310
0 311 189 0 c174 0 192 2 216 20 15 11 28 24 29 30 0 5 -192 45 -428 87 -236
43 -438 84 -450 91 -12 8 -31 33 -44 56 l-24 41 55 26 c102 46 430 108 640
121 59 3 107 9 107 12 0 3 -53 26 -117 51 -133 52 -133 52 -155 186 l-14 79
-64 35 c-97 53 -245 204 -293 301 -21 41 -41 94 -44 117 -5 41 -3 45 39 86 50
48 118 76 183 76 70 0 89 -23 120 -150 33 -132 141 -241 286 -288 46 -14 86
-17 257 -14 185 3 203 4 200 20 -5 25 -42 30 -246 31 -197 1 -236 9 -265 54
-19 32 -165 378 -172 413 -19 83 -25 94 -56 94 -16 0 -46 7 -67 16 -92 39 -79
43 -159 -41z"/>
<path d="M16936 5338 c-3 -18 -10 -199 -17 -403 -9 -320 -9 -403 5 -615 9
-135 25 -384 36 -555 11 -170 23 -338 26 -372 l6 -63 122 0 123 0 6 152 c4 83
7 187 7 231 0 44 3 77 8 73 4 -4 25 -110 47 -234 l40 -227 110 4 c61 1 114 5
119 8 8 5 2 216 -9 333 -3 25 -14 209 -26 409 l-21 365 22 385 c11 212 22 415
23 451 l2 65 -50 2 c-145 8 -510 23 -540 23 -31 0 -35 -3 -39 -32z"/>
<path d="M14336 5143 c-3 -42 -6 -128 -6 -193 0 -64 -9 -188 -20 -276 -29
-240 -65 -1067 -56 -1284 8 -175 16 -250 27 -250 10 0 16 23 24 103 l7 59 21
-19 c199 -173 211 -179 316 -147 57 17 66 40 23 59 -18 8 -22 17 -21 55 2 97
4 97 106 11 116 -98 136 -107 211 -92 109 22 106 59 -7 85 -97 21 -200 85
-268 165 -30 35 -53 65 -51 66 2 2 32 -3 68 -10 36 -8 70 -14 77 -15 16 0 22
23 97 382 105 498 122 639 111 958 -4 118 -8 226 -10 240 -1 14 -3 47 -4 74
-1 45 -2 48 -23 42 -143 -40 -318 -49 -423 -21 -33 9 -88 32 -123 50 -34 19
-64 35 -66 35 -2 0 -6 -34 -10 -77z m247 -1420 c-14 -106 -9 -175 13 -211 8
-12 13 -26 10 -30 -2 -4 -1 -67 2 -140 l7 -132 -28 0 c-28 0 -133 53 -172 88
-30 25 -118 132 -114 136 2 2 27 0 54 -4 34 -6 54 -5 62 3 10 10 81 168 156
350 9 20 18 37 19 37 2 0 -2 -44 -9 -97z"/>
<path d="M8258 5030 c-74 -14 -126 -69 -164 -175 -49 -133 -41 -259 19 -332
63 -75 60 -64 36 -145 -21 -69 -22 -80 -12 -218 9 -134 14 -154 56 -270 32
-90 48 -152 56 -221 12 -107 6 -139 -40 -231 -59 -117 -61 -134 -67 -613 -8
-604 -8 -667 0 -688 7 -15 27 -17 217 -17 l210 0 23 73 c22 67 23 88 22 322
-1 297 -29 616 -81 924 -14 85 -15 252 -1 266 2 3 30 0 61 -6 67 -14 94 -11
544 52 100 14 103 17 103 86 0 23 7 37 29 52 38 28 54 27 46 -1 -7 -22 -6 -22
11 -6 15 15 18 34 19 100 0 56 -4 82 -13 85 -7 3 -10 -1 -6 -11 9 -24 -13 -19
-57 12 -38 26 -39 28 -37 82 l3 55 -170 17 c-324 33 -506 48 -569 48 -45 0
-67 4 -76 15 -9 11 -15 12 -20 5 -10 -16 -86 3 -81 21 22 89 4 260 -30 288
-25 20 -33 101 -11 109 6 2 12 10 12 18 0 8 11 26 24 39 23 23 25 23 79 9 52
-13 58 -13 123 11 142 51 140 121 -6 195 -87 44 -184 63 -252 50z"/>
<path d="M2370 4590 c0 -17 9 -39 20 -50 19 -19 33 -20 275 -20 l255 0 0 -695
c0 -665 -1 -695 -18 -686 -10 5 -53 18 -95 29 l-78 20 -13 -21 c-19 -30 -26
-84 -18 -131 7 -38 9 -41 67 -58 41 -12 61 -14 66 -6 9 14 76 -8 112 -38 32
-27 78 -31 119 -10 23 12 198 42 202 34 1 -2 12 -24 25 -51 l22 -47 57 6 c31
4 62 12 67 19 6 6 34 15 64 18 107 13 308 96 335 139 12 20 -6 66 -30 75 -9 3
-60 -9 -113 -27 -89 -30 -106 -33 -242 -35 -80 -1 -151 -5 -158 -10 -8 -4 -17
-2 -21 6 -5 8 -36 14 -82 16 -40 2 -79 6 -85 8 -10 3 -13 157 -13 725 l0 720
1465 0 1465 0 0 -780 0 -781 26 -26 c22 -22 32 -25 72 -20 28 3 51 12 59 23
10 14 13 171 13 801 l0 783 253 0 c285 0 297 3 297 66 l0 34 -2185 0 -2185 0
0 -30z"/>
<path d="M10230 4503 c0 -3 5 -36 10 -72 6 -36 13 -81 16 -98 3 -21 11 -33 20
-33 13 0 15 9 12 45 -2 25 -1 45 1 45 2 0 19 -14 39 -31 20 -18 54 -40 76 -50
42 -19 116 -26 116 -11 0 5 -14 21 -31 38 -17 16 -38 44 -46 62 -7 18 -28 41
-45 50 -17 9 -43 27 -58 40 -19 15 -41 22 -69 22 -23 0 -41 -3 -41 -7z"/>
<path d="M9940 4369 c0 -123 2 -139 21 -163 16 -21 29 -26 63 -26 92 0 114 51
101 227 l-7 97 -19 -48 c-19 -52 -45 -86 -64 -86 -18 0 -52 41 -74 90 l-21 45
0 -136z"/>
<path d="M11205 4386 c-33 -8 -64 -10 -70 -6 -5 4 -48 -1 -95 -12 -47 -11
-111 -19 -142 -18 -48 1 -59 -2 -70 -19 -11 -19 -23 -21 -105 -21 -90 0 -93
-1 -99 -24 -11 -45 -2 -59 51 -73 71 -19 210 -27 280 -15 33 6 65 7 70 2 6 -4
50 2 98 13 61 14 91 17 95 10 5 -7 24 -8 64 0 l57 10 6 51 c4 29 5 65 3 81 -3
27 -7 30 -43 32 -22 1 -67 -4 -100 -11z"/>
<path d="M12231 4208 c-46 -13 -108 -56 -169 -119 -55 -56 -67 -82 -47 -103
29 -29 156 -29 268 -1 24 6 27 5 27 -19 0 -16 6 -26 15 -26 16 0 35 -30 35
-54 0 -9 -9 -25 -20 -36 -21 -21 -24 -46 -14 -99 9 -42 28 -39 79 12 54 54 84
144 92 277 5 92 5 96 -21 127 -40 47 -156 67 -245 41z"/>
<path d="M5109 4070 c-3 -8 -7 -85 -8 -170 -2 -147 -26 -430 -55 -640 -8 -52
-13 -96 -12 -97 0 -1 13 1 28 4 26 5 27 8 26 62 -1 31 6 153 16 271 16 201 20
608 5 570z"/>
<path d="M16957 3299 c-54 -28 -154 -52 -183 -45 -50 13 -44 -63 7 -89 45 -24
152 -29 231 -13 55 12 68 12 72 1 9 -22 265 -13 349 13 10 3 17 0 17 -8 0 -11
14 -13 63 -10 34 2 64 6 65 7 2 2 6 30 9 63 5 52 3 62 -16 81 -20 20 -28 21
-114 15 -51 -3 -121 -15 -156 -25 -79 -24 -76 -24 -89 6 -11 24 -14 25 -114
24 -80 -1 -111 -5 -141 -20z"/>
<path d="M10582 3298 c-7 -7 -12 -19 -12 -27 0 -8 80 -142 177 -298 l176 -283
47 0 c26 0 102 -3 168 -7 71 -3 122 -2 122 3 0 5 -17 21 -38 35 -33 24 -50 27
-157 34 l-120 7 -169 269 c-93 148 -172 272 -176 274 -4 2 -12 -1 -18 -7z"/>
<path d="M4923 3044 c-58 -62 -123 -122 -152 -139 -28 -16 -51 -35 -51 -42 0
-18 43 -27 88 -18 20 5 47 7 59 6 27 -3 57 13 103 52 l35 31 3 -37 c2 -20 7
-37 11 -37 10 0 21 36 21 71 0 23 36 69 53 69 4 0 7 -29 7 -65 0 -64 12 -86
24 -42 3 12 9 69 12 127 6 90 4 107 -9 119 -14 11 -21 10 -44 -7 -27 -19 -27
-19 -43 0 -16 20 -19 17 -117 -88z"/>
<path d="M12750 3131 c-52 -16 -91 -43 -115 -79 l-25 -38 24 -205 c14 -112 30
-276 37 -364 l12 -160 -26 -50 c-46 -91 -37 -88 -387 -150 -173 -31 -322 -59
-330 -61 -12 -4 -9 -11 13 -30 28 -24 31 -24 223 -24 l194 0 0 -313 0 -313
-50 -13 c-117 -30 -280 -180 -280 -257 0 -59 62 -84 103 -41 12 13 44 47 72
76 40 43 126 101 150 101 3 0 5 -32 5 -70 0 -66 2 -71 26 -82 40 -18 60 13 63
93 1 35 4 65 6 67 2 2 22 1 44 -3 54 -9 126 -58 170 -116 20 -27 46 -51 59
-55 62 -17 104 35 75 94 -23 48 -136 150 -197 178 -30 13 -77 27 -105 31 l-51
6 0 308 0 309 181 0 181 0 29 29 c19 20 29 40 29 60 0 22 8 35 30 51 17 12 40
40 53 63 22 41 22 48 22 432 0 389 0 390 -23 430 -26 45 -72 81 -123 95 -39
11 -54 11 -89 1z"/>
<path d="M8940 2457 c0 -12 7 -33 16 -45 15 -21 20 -22 200 -22 l184 0 2 -772
3 -773 44 -3 c28 -2 47 1 52 10 5 7 9 356 9 776 l0 762 1040 0 1040 0 0 -644
0 -644 -37 -12 c-21 -7 -72 -27 -113 -46 -66 -29 -92 -34 -199 -42 -67 -5
-146 -5 -174 0 -29 4 -99 7 -157 7 -95 -2 -115 2 -210 33 -58 20 -110 33 -116
31 -13 -5 -34 -47 -34 -68 0 -35 200 -127 321 -146 41 -7 79 -18 84 -25 6 -7
36 -14 69 -15 59 -3 59 -3 78 35 l19 37 57 -8 c86 -12 239 -7 311 10 70 16 90
11 107 -27 12 -29 82 -36 101 -10 10 14 13 173 13 776 l0 758 48 0 c57 0 166
28 247 63 l60 26 -1532 1 -1533 0 0 -23z"/>
<path d="M8057 1122 c-19 -21 -59 -190 -46 -198 8 -5 14 6 35 66 3 9 14 -1 30
-30 61 -108 159 -160 219 -116 17 13 16 15 -21 42 -98 73 -133 114 -156 185
-23 72 -34 81 -61 51z"/>
<path d="M8516 1059 c-20 -29 -20 -36 1 -131 12 -50 23 -78 31 -78 10 0 12 10
7 40 -4 22 -3 40 1 40 4 0 22 -11 41 -26 81 -61 243 -94 243 -48 0 7 -10 19
-22 25 -13 7 -38 25 -56 40 -18 16 -42 29 -54 29 -33 0 -102 45 -141 91 l-34
42 -17 -24z"/>
</g>
</svg>
